<svg xmlns="http://www.w3.org/2000/svg" version="1.1" xmlns:xlink="http://www.w3.org/1999/xlink" xmlns:svgjs="http://svgjs.dev/svgjs" width="1440" height="560" preserveAspectRatio="none" viewBox="0 0 1440 560"><g mask="url(&quot;#SvgjsMask1015&quot;)" fill="none"><rect width="1440" height="560" x="0" y="0" fill="url(&quot;#SvgjsLinearGradient1016&quot;)"></rect><path d="M-65.7 365.06L-65.7 365.06" stroke="#132e65" stroke-width="1.5"></path><path d="M-65.7 365.06L81.14 395.95" stroke="#132e65" stroke-width="1.5"></path><path d="M-65.7 365.06L-90.18 551.6" stroke="#132e65" stroke-width="1.5"></path><path d="M-65.7 365.06L75.3 545.64" stroke="#132e65" stroke-width="1.5"></path><path d="M-65.7 365.06L-101.73 661.09" stroke="#132e65" stroke-width="1.5"></path><path d="M-65.7 365.06L195.96 550.61" stroke="#132e65" stroke-width="1.5"></path><path d="M-90.18 551.6L-90.18 551.6" stroke="#132e65" stroke-width="1.5"></path><path d="M-90.18 551.6L-101.73 661.09" stroke="#132e65" stroke-width="1.5"></path><path d="M-101.73 661.09L-101.73 661.09" stroke="#132e65" stroke-width="1.5"></path><path d="M-101.73 661.09L45.97 671.69" stroke="#132e65" stroke-width="1.5"></path><path d="M81.14 395.95L81.14 395.95" stroke="#132e65" stroke-width="1.5"></path><path d="M81.14 395.95L75.3 545.64" stroke="#132e65" stroke-width="1.5"></path><path d="M81.14 395.95L195.96 550.61" stroke="#132e65" stroke-width="1.5"></path><path d="M81.14 395.95L-90.18 551.6" stroke="#132e65" stroke-width="1.5"></path><path d="M81.14 395.95L45.97 671.69" stroke="#132e65" stroke-width="1.5"></path><path d="M75.3 545.64L75.3 545.64" stroke="#132e65" stroke-width="1.5"></path><path d="M75.3 545.64L195.96 550.61" stroke="#132e65" stroke-width="1.5"></path><path d="M75.3 545.64L45.97 671.69" stroke="#132e65" stroke-width="1.5"></path><path d="M75.3 545.64L-90.18 551.6" stroke="#132e65" stroke-width="1.5"></path><path d="M75.3 545.64L191.62 710.46" stroke="#132e65" stroke-width="1.5"></path><path d="M45.97 671.69L45.97 671.69" stroke="#132e65" stroke-width="1.5"></path><path d="M195.96 550.61L195.96 550.61" stroke="#132e65" stroke-width="1.5"></path><path d="M195.96 550.61L191.62 710.46" stroke="#132e65" stroke-width="1.5"></path><path d="M195.96 550.61L350.33 638.98" stroke="#132e65" stroke-width="1.5"></path><path d="M195.96 550.61L45.97 671.69" stroke="#132e65" stroke-width="1.5"></path><path d="M191.62 710.46L191.62 710.46" stroke="#132e65" stroke-width="1.5"></path><path d="M191.62 710.46L45.97 671.69" stroke="#132e65" stroke-width="1.5"></path><path d="M191.62 710.46L350.33 638.98" stroke="#132e65" stroke-width="1.5"></path><path d="M191.62 710.46L412.16 519.32" stroke="#132e65" stroke-width="1.5"></path><path d="M191.62 710.46L-101.73 661.09" stroke="#132e65" stroke-width="1.5"></path><path d="M366.78 349L366.78 349" stroke="#132e65" stroke-width="1.5"></path><path d="M366.78 349L502.63 350.61" stroke="#132e65" stroke-width="1.5"></path><path d="M366.78 349L412.16 519.32" stroke="#132e65" stroke-width="1.5"></path><path d="M366.78 349L556.34 501.48" stroke="#132e65" stroke-width="1.5"></path><path d="M366.78 349L195.96 550.61" stroke="#132e65" stroke-width="1.5"></path><path d="M366.78 349L81.14 395.95" stroke="#132e65" stroke-width="1.5"></path><path d="M412.16 519.32L412.16 519.32" stroke="#132e65" stroke-width="1.5"></path><path d="M412.16 519.32L350.33 638.98" stroke="#132e65" stroke-width="1.5"></path><path d="M412.16 519.32L556.34 501.48" stroke="#132e65" stroke-width="1.5"></path><path d="M350.33 638.98L350.33 638.98" stroke="#132e65" stroke-width="1.5"></path><path d="M350.33 638.98L542.14 670.79" stroke="#132e65" stroke-width="1.5"></path><path d="M502.63 350.61L502.63 350.61" stroke="#132e65" stroke-width="1.5"></path><path d="M502.63 350.61L556.34 501.48" stroke="#132e65" stroke-width="1.5"></path><path d="M502.63 350.61L674.47 355.01" stroke="#132e65" stroke-width="1.5"></path><path d="M502.63 350.61L412.16 519.32" stroke="#132e65" stroke-width="1.5"></path><path d="M502.63 350.61L691.03 231.34" stroke="#132e65" stroke-width="1.5"></path><path d="M556.34 501.48L556.34 501.48" stroke="#132e65" stroke-width="1.5"></path><path d="M556.34 501.48L669.87 522.21" stroke="#132e65" stroke-width="1.5"></path><path d="M556.34 501.48L542.14 670.79" stroke="#132e65" stroke-width="1.5"></path><path d="M556.34 501.48L674.47 355.01" stroke="#132e65" stroke-width="1.5"></path><path d="M542.14 670.79L542.14 670.79" stroke="#132e65" stroke-width="1.5"></path><path d="M542.14 670.79L649.16 696.18" stroke="#132e65" stroke-width="1.5"></path><path d="M691.03 231.34L691.03 231.34" stroke="#132e65" stroke-width="1.5"></path><path d="M691.03 231.34L674.47 355.01" stroke="#132e65" stroke-width="1.5"></path><path d="M691.03 231.34L857.82 242.99" stroke="#132e65" stroke-width="1.5"></path><path d="M691.03 231.34L791.06 369.71" stroke="#132e65" stroke-width="1.5"></path><path d="M674.47 355.01L674.47 355.01" stroke="#132e65" stroke-width="1.5"></path><path d="M674.47 355.01L791.06 369.71" stroke="#132e65" stroke-width="1.5"></path><path d="M674.47 355.01L669.87 522.21" stroke="#132e65" stroke-width="1.5"></path><path d="M674.47 355.01L857.82 242.99" stroke="#132e65" stroke-width="1.5"></path><path d="M669.87 522.21L669.87 522.21" stroke="#132e65" stroke-width="1.5"></path><path d="M669.87 522.21L841.16 492.72" stroke="#132e65" stroke-width="1.5"></path><path d="M669.87 522.21L649.16 696.18" stroke="#132e65" stroke-width="1.5"></path><path d="M669.87 522.21L791.06 369.71" stroke="#132e65" stroke-width="1.5"></path><path d="M669.87 522.21L542.14 670.79" stroke="#132e65" stroke-width="1.5"></path><path d="M649.16 696.18L649.16 696.18" stroke="#132e65" stroke-width="1.5"></path><path d="M649.16 696.18L799.31 684.56" stroke="#132e65" stroke-width="1.5"></path><path d="M857.82 242.99L857.82 242.99" stroke="#132e65" stroke-width="1.5"></path><path d="M857.82 242.99L960.93 254.82" stroke="#132e65" stroke-width="1.5"></path><path d="M857.82 242.99L791.06 369.71" stroke="#132e65" stroke-width="1.5"></path><path d="M857.82 242.99L989.35 408.99" stroke="#132e65" stroke-width="1.5"></path><path d="M857.82 242.99L984.71 54.01" stroke="#132e65" stroke-width="1.5"></path><path d="M791.06 369.71L791.06 369.71" stroke="#132e65" stroke-width="1.5"></path><path d="M841.16 492.72L841.16 492.72" stroke="#132e65" stroke-width="1.5"></path><path d="M841.16 492.72L941.98 549.81" stroke="#132e65" stroke-width="1.5"></path><path d="M841.16 492.72L791.06 369.71" stroke="#132e65" stroke-width="1.5"></path><path d="M841.16 492.72L989.35 408.99" stroke="#132e65" stroke-width="1.5"></path><path d="M841.16 492.72L799.31 684.56" stroke="#132e65" stroke-width="1.5"></path><path d="M841.16 492.72L674.47 355.01" stroke="#132e65" stroke-width="1.5"></path><path d="M799.31 684.56L799.31 684.56" stroke="#132e65" stroke-width="1.5"></path><path d="M799.31 684.56L978.4 700.14" stroke="#132e65" stroke-width="1.5"></path><path d="M799.31 684.56L941.98 549.81" stroke="#132e65" stroke-width="1.5"></path><path d="M799.31 684.56L669.87 522.21" stroke="#132e65" stroke-width="1.5"></path><path d="M937.9 -68.82L937.9 -68.82" stroke="#132e65" stroke-width="1.5"></path><path d="M937.9 -68.82L984.71 54.01" stroke="#132e65" stroke-width="1.5"></path><path d="M937.9 -68.82L1119.64 83.59" stroke="#132e65" stroke-width="1.5"></path><path d="M937.9 -68.82L857.82 242.99" stroke="#132e65" stroke-width="1.5"></path><path d="M937.9 -68.82L960.93 254.82" stroke="#132e65" stroke-width="1.5"></path><path d="M937.9 -68.82L1283.19 -111.7" stroke="#132e65" stroke-width="1.5"></path><path d="M937.9 -68.82L1147.08 218.28" stroke="#132e65" stroke-width="1.5"></path><path d="M984.71 54.01L984.71 54.01" stroke="#132e65" stroke-width="1.5"></path><path d="M984.71 54.01L1119.64 83.59" stroke="#132e65" stroke-width="1.5"></path><path d="M984.71 54.01L960.93 254.82" stroke="#132e65" stroke-width="1.5"></path><path d="M984.71 54.01L1147.08 218.28" stroke="#132e65" stroke-width="1.5"></path><path d="M984.71 54.01L1252.77 100.77" stroke="#132e65" stroke-width="1.5"></path><path d="M960.93 254.82L960.93 254.82" stroke="#132e65" stroke-width="1.5"></path><path d="M960.93 254.82L989.35 408.99" stroke="#132e65" stroke-width="1.5"></path><path d="M960.93 254.82L1147.08 218.28" stroke="#132e65" stroke-width="1.5"></path><path d="M989.35 408.99L989.35 408.99" stroke="#132e65" stroke-width="1.5"></path><path d="M989.35 408.99L941.98 549.81" stroke="#132e65" stroke-width="1.5"></path><path d="M989.35 408.99L791.06 369.71" stroke="#132e65" stroke-width="1.5"></path><path d="M941.98 549.81L941.98 549.81" stroke="#132e65" stroke-width="1.5"></path><path d="M941.98 549.81L978.4 700.14" stroke="#132e65" stroke-width="1.5"></path><path d="M978.4 700.14L978.4 700.14" stroke="#132e65" stroke-width="1.5"></path><path d="M978.4 700.14L1124.12 663.64" stroke="#132e65" stroke-width="1.5"></path><path d="M1119.64 83.59L1119.64 83.59" stroke="#132e65" stroke-width="1.5"></path><path d="M1119.64 83.59L1252.77 100.77" stroke="#132e65" stroke-width="1.5"></path><path d="M1119.64 83.59L1147.08 218.28" stroke="#132e65" stroke-width="1.5"></path><path d="M1119.64 83.59L1244.19 237.53" stroke="#132e65" stroke-width="1.5"></path><path d="M1119.64 83.59L960.93 254.82" stroke="#132e65" stroke-width="1.5"></path><path d="M1147.08 218.28L1147.08 218.28" stroke="#132e65" stroke-width="1.5"></path><path d="M1147.08 218.28L1244.19 237.53" stroke="#132e65" stroke-width="1.5"></path><path d="M1147.08 218.28L1252.77 100.77" stroke="#132e65" stroke-width="1.5"></path><path d="M1155.8 559.82L1155.8 559.82" stroke="#132e65" stroke-width="1.5"></path><path d="M1155.8 559.82L1124.12 663.64" stroke="#132e65" stroke-width="1.5"></path><path d="M1155.8 559.82L1260.87 652.91" stroke="#132e65" stroke-width="1.5"></path><path d="M1155.8 559.82L1311.3 514.18" stroke="#132e65" stroke-width="1.5"></path><path d="M1155.8 559.82L941.98 549.81" stroke="#132e65" stroke-width="1.5"></path><path d="M1155.8 559.82L989.35 408.99" stroke="#132e65" stroke-width="1.5"></path><path d="M1124.12 663.64L1124.12 663.64" stroke="#132e65" stroke-width="1.5"></path><path d="M1124.12 663.64L1260.87 652.91" stroke="#132e65" stroke-width="1.5"></path><path d="M1283.19 -111.7L1283.19 -111.7" stroke="#132e65" stroke-width="1.5"></path><path d="M1283.19 -111.7L1390.82 -59.15" stroke="#132e65" stroke-width="1.5"></path><path d="M1283.19 -111.7L1411.67 55.16" stroke="#132e65" stroke-width="1.5"></path><path d="M1283.19 -111.7L1252.77 100.77" stroke="#132e65" stroke-width="1.5"></path><path d="M1283.19 -111.7L1119.64 83.59" stroke="#132e65" stroke-width="1.5"></path><path d="M1283.19 -111.7L1588.33 -98.16" stroke="#132e65" stroke-width="1.5"></path><path d="M1283.19 -111.7L1538.65 88.46" stroke="#132e65" stroke-width="1.5"></path><path d="M1252.77 100.77L1252.77 100.77" stroke="#132e65" stroke-width="1.5"></path><path d="M1252.77 100.77L1244.19 237.53" stroke="#132e65" stroke-width="1.5"></path><path d="M1244.19 237.53L1244.19 237.53" stroke="#132e65" stroke-width="1.5"></path><path d="M1244.19 237.53L1293.66 361.68" stroke="#132e65" stroke-width="1.5"></path><path d="M1244.19 237.53L1438.43 217.49" stroke="#132e65" stroke-width="1.5"></path><path d="M1244.19 237.53L1439.31 339.48" stroke="#132e65" stroke-width="1.5"></path><path d="M1293.66 361.68L1293.66 361.68" stroke="#132e65" stroke-width="1.5"></path><path d="M1293.66 361.68L1439.31 339.48" stroke="#132e65" stroke-width="1.5"></path><path d="M1293.66 361.68L1311.3 514.18" stroke="#132e65" stroke-width="1.5"></path><path d="M1293.66 361.68L1438.43 217.49" stroke="#132e65" stroke-width="1.5"></path><path d="M1311.3 514.18L1311.3 514.18" stroke="#132e65" stroke-width="1.5"></path><path d="M1311.3 514.18L1260.87 652.91" stroke="#132e65" stroke-width="1.5"></path><path d="M1311.3 514.18L1462.03 531.34" stroke="#132e65" stroke-width="1.5"></path><path d="M1311.3 514.18L1432.21 686.44" stroke="#132e65" stroke-width="1.5"></path><path d="M1311.3 514.18L1439.31 339.48" stroke="#132e65" stroke-width="1.5"></path><path d="M1260.87 652.91L1260.87 652.91" stroke="#132e65" stroke-width="1.5"></path><path d="M1260.87 652.91L1432.21 686.44" stroke="#132e65" stroke-width="1.5"></path><path d="M1260.87 652.91L1462.03 531.34" stroke="#132e65" stroke-width="1.5"></path><path d="M1260.87 652.91L978.4 700.14" stroke="#132e65" stroke-width="1.5"></path><path d="M1390.82 -59.15L1390.82 -59.15" stroke="#132e65" stroke-width="1.5"></path><path d="M1390.82 -59.15L1411.67 55.16" stroke="#132e65" stroke-width="1.5"></path><path d="M1390.82 -59.15L1588.33 -98.16" stroke="#132e65" stroke-width="1.5"></path><path d="M1390.82 -59.15L1538.65 88.46" stroke="#132e65" stroke-width="1.5"></path><path d="M1390.82 -59.15L1252.77 100.77" stroke="#132e65" stroke-width="1.5"></path><path d="M1390.82 -59.15L1438.43 217.49" stroke="#132e65" stroke-width="1.5"></path><path d="M1411.67 55.16L1411.67 55.16" stroke="#132e65" stroke-width="1.5"></path><path d="M1411.67 55.16L1538.65 88.46" stroke="#132e65" stroke-width="1.5"></path><path d="M1411.67 55.16L1438.43 217.49" stroke="#132e65" stroke-width="1.5"></path><path d="M1411.67 55.16L1252.77 100.77" stroke="#132e65" stroke-width="1.5"></path><path d="M1438.43 217.49L1438.43 217.49" stroke="#132e65" stroke-width="1.5"></path><path d="M1438.43 217.49L1439.31 339.48" stroke="#132e65" stroke-width="1.5"></path><path d="M1438.43 217.49L1590.95 258.48" stroke="#132e65" stroke-width="1.5"></path><path d="M1439.31 339.48L1439.31 339.48" stroke="#132e65" stroke-width="1.5"></path><path d="M1439.31 339.48L1579.12 351.71" stroke="#132e65" stroke-width="1.5"></path><path d="M1462.03 531.34L1462.03 531.34" stroke="#132e65" stroke-width="1.5"></path><path d="M1462.03 531.34L1580.91 501.43" stroke="#132e65" stroke-width="1.5"></path><path d="M1462.03 531.34L1432.21 686.44" stroke="#132e65" stroke-width="1.5"></path><path d="M1462.03 531.34L1554.04 692.27" stroke="#132e65" stroke-width="1.5"></path><path d="M1462.03 531.34L1439.31 339.48" stroke="#132e65" stroke-width="1.5"></path><path d="M1432.21 686.44L1432.21 686.44" stroke="#132e65" stroke-width="1.5"></path><path d="M1432.21 686.44L1554.04 692.27" stroke="#132e65" stroke-width="1.5"></path><path d="M1432.21 686.44L1580.91 501.43" stroke="#132e65" stroke-width="1.5"></path><path d="M1588.33 -98.16L1588.33 -98.16" stroke="#132e65" stroke-width="1.5"></path><path d="M1588.33 -98.16L1538.65 88.46" stroke="#132e65" stroke-width="1.5"></path><path d="M1588.33 -98.16L1411.67 55.16" stroke="#132e65" stroke-width="1.5"></path><path d="M1538.65 88.46L1538.65 88.46" stroke="#132e65" stroke-width="1.5"></path><path d="M1538.65 88.46L1438.43 217.49" stroke="#132e65" stroke-width="1.5"></path><path d="M1590.95 258.48L1590.95 258.48" stroke="#132e65" stroke-width="1.5"></path><path d="M1590.95 258.48L1579.12 351.71" stroke="#132e65" stroke-width="1.5"></path><path d="M1579.12 351.71L1579.12 351.71" stroke="#132e65" stroke-width="1.5"></path><path d="M1579.12 351.71L1580.91 501.43" stroke="#132e65" stroke-width="1.5"></path><path d="M1579.12 351.71L1438.43 217.49" stroke="#132e65" stroke-width="1.5"></path><path d="M1580.91 501.43L1580.91 501.43" stroke="#132e65" stroke-width="1.5"></path><path d="M1580.91 501.43L1554.04 692.27" stroke="#132e65" stroke-width="1.5"></path><path d="M1554.04 692.27L1554.04 692.27" stroke="#132e65" stroke-width="1.5"></path><path d="M1554.04 692.27L1260.87 652.91" stroke="#132e65" stroke-width="1.5"></path><path d="M1554.04 692.27L1311.3 514.18" stroke="#132e65" stroke-width="1.5"></path><path d="M1554.04 692.27L1579.12 351.71" stroke="#132e65" stroke-width="1.5"></path><circle r="5" cx="-65.7" cy="365.06" fill="#132e65"></circle><circle r="5" cx="-90.18" cy="551.6" fill="#132e65"></circle><circle r="5" cx="-101.73" cy="661.09" fill="#132e65"></circle><circle r="5" cx="81.14" cy="395.95" fill="#132e65"></circle><circle r="5" cx="75.3" cy="545.64" fill="#132e65"></circle><circle r="5" cx="45.97" cy="671.69" fill="#132e65"></circle><circle r="5" cx="195.96" cy="550.61" fill="#132e65"></circle><circle r="5" cx="191.62" cy="710.46" fill="#132e65"></circle><circle r="5" cx="366.78" cy="349" fill="#132e65"></circle><circle r="5" cx="412.16" cy="519.32" fill="#132e65"></circle><circle r="5" cx="350.33" cy="638.98" fill="#132e65"></circle><circle r="5" cx="502.63" cy="350.61" fill="#132e65"></circle><circle r="5" cx="556.34" cy="501.48" fill="#132e65"></circle><circle r="5" cx="542.14" cy="670.79" fill="#132e65"></circle><circle r="5" cx="691.03" cy="231.34" fill="#132e65"></circle><circle r="5" cx="674.47" cy="355.01" fill="#132e65"></circle><circle r="5" cx="669.87" cy="522.21" fill="#132e65"></circle><circle r="5" cx="649.16" cy="696.18" fill="#132e65"></circle><circle r="5" cx="857.82" cy="242.99" fill="#132e65"></circle><circle r="5" cx="791.06" cy="369.71" fill="#132e65"></circle><circle r="5" cx="841.16" cy="492.72" fill="#132e65"></circle><circle r="5" cx="799.31" cy="684.56" fill="#132e65"></circle><circle r="5" cx="937.9" cy="-68.82" fill="#132e65"></circle><circle r="5" cx="984.71" cy="54.01" fill="#132e65"></circle><circle r="5" cx="960.93" cy="254.82" fill="#132e65"></circle><circle r="5" cx="989.35" cy="408.99" fill="#132e65"></circle><circle r="5" cx="941.98" cy="549.81" fill="#132e65"></circle><circle r="5" cx="978.4" cy="700.14" fill="#132e65"></circle><circle r="5" cx="1119.64" cy="83.59" fill="#132e65"></circle><circle r="5" cx="1147.08" cy="218.28" fill="#132e65"></circle><circle r="5" cx="1155.8" cy="559.82" fill="#132e65"></circle><circle r="5" cx="1124.12" cy="663.64" fill="#132e65"></circle><circle r="5" cx="1283.19" cy="-111.7" fill="#132e65"></circle><circle r="5" cx="1252.77" cy="100.77" fill="#132e65"></circle><circle r="5" cx="1244.19" cy="237.53" fill="#132e65"></circle><circle r="5" cx="1293.66" cy="361.68" fill="#132e65"></circle><circle r="5" cx="1311.3" cy="514.18" fill="#132e65"></circle><circle r="5" cx="1260.87" cy="652.91" fill="#132e65"></circle><circle r="5" cx="1390.82" cy="-59.15" fill="#132e65"></circle><circle r="5" cx="1411.67" cy="55.16" fill="#132e65"></circle><circle r="5" cx="1438.43" cy="217.49" fill="#132e65"></circle><circle r="5" cx="1439.31" cy="339.48" fill="#132e65"></circle><circle r="5" cx="1462.03" cy="531.34" fill="#132e65"></circle><circle r="5" cx="1432.21" cy="686.44" fill="#132e65"></circle><circle r="5" cx="1588.33" cy="-98.16" fill="#132e65"></circle><circle r="5" cx="1538.65" cy="88.46" fill="#132e65"></circle><circle r="5" cx="1590.95" cy="258.48" fill="#132e65"></circle><circle r="5" cx="1579.12" cy="351.71" fill="#132e65"></circle><circle r="5" cx="1580.91" cy="501.43" fill="#132e65"></circle><circle r="5" cx="1554.04" cy="692.27" fill="#132e65"></circle><path d="M-54.65 494.19L-54.65 494.19" stroke="hsl(228.5, 77.2%, 51.5%)" stroke-width="1.5"></path><path d="M-54.65 494.19L110.33 548.55" stroke="hsl(228.5, 77.2%, 51.5%)" stroke-width="1.5"></path><path d="M-54.65 494.19L-96.55 680.54" stroke="hsl(228.5, 77.2%, 51.5%)" stroke-width="1.5"></path><path d="M1264.02 -47.42L1264.02 -47.42" stroke="hsl(228.5, 77.2%, 51.5%)" stroke-width="1.5"></path><path d="M1264.02 -47.42L1287.89 108.49" stroke="hsl(228.5, 77.2%, 51.5%)" stroke-width="1.5"></path><path d="M1264.02 -47.42L1428.48 -110.29" stroke="hsl(228.5, 77.2%, 51.5%)" stroke-width="1.5"></path><path d="M1264.02 -47.42L1391.68 99.03" stroke="hsl(228.5, 77.2%, 51.5%)" stroke-width="1.5"></path><path d="M1264.02 -47.42L1268.25 220.22" stroke="hsl(228.5, 77.2%, 51.5%)" stroke-width="1.5"></path><path d="M1264.02 -47.42L1566.63 -51.04" stroke="hsl(228.5, 77.2%, 51.5%)" stroke-width="1.5"></path><path d="M1264.02 -47.42L1438.77 247.23" stroke="hsl(228.5, 77.2%, 51.5%)" stroke-width="1.5"></path><path d="M1244.44 378.6L1244.44 378.6" stroke="hsl(228.5, 77.2%, 51.5%)" stroke-width="1.5"></path><path d="M1244.44 378.6L1117.57 342.01" stroke="hsl(228.5, 77.2%, 51.5%)" stroke-width="1.5"></path><path d="M1244.44 378.6L1245.39 517.5" stroke="hsl(228.5, 77.2%, 51.5%)" stroke-width="1.5"></path><path d="M1244.44 378.6L1268.25 220.22" stroke="hsl(228.5, 77.2%, 51.5%)" stroke-width="1.5"></path><path d="M1244.44 378.6L1115.12 535.14" stroke="hsl(228.5, 77.2%, 51.5%)" stroke-width="1.5"></path><path d="M1566.63 -51.04L1566.63 -51.04" stroke="hsl(228.5, 77.2%, 51.5%)" stroke-width="1.5"></path><path d="M1566.63 -51.04L1428.48 -110.29" stroke="hsl(228.5, 77.2%, 51.5%)" stroke-width="1.5"></path><path d="M1566.63 -51.04L1579.28 103.92" stroke="hsl(228.5, 77.2%, 51.5%)" stroke-width="1.5"></path><path d="M1566.63 -51.04L1391.68 99.03" stroke="hsl(228.5, 77.2%, 51.5%)" stroke-width="1.5"></path><path d="M1566.63 -51.04L1548.9 188.54" stroke="hsl(228.5, 77.2%, 51.5%)" stroke-width="1.5"></path><path d="M1566.63 -51.04L1287.89 108.49" stroke="hsl(228.5, 77.2%, 51.5%)" stroke-width="1.5"></path><path d="M1579.28 103.92L1579.28 103.92" stroke="hsl(228.5, 77.2%, 51.5%)" stroke-width="1.5"></path><path d="M1579.28 103.92L1548.9 188.54" stroke="hsl(228.5, 77.2%, 51.5%)" stroke-width="1.5"></path><path d="M1579.28 103.92L1391.68 99.03" stroke="hsl(228.5, 77.2%, 51.5%)" stroke-width="1.5"></path><path d="M1596.41 407.54L1596.41 407.54" stroke="hsl(228.5, 77.2%, 51.5%)" stroke-width="1.5"></path><path d="M1596.41 407.54L1553.42 502.37" stroke="hsl(228.5, 77.2%, 51.5%)" stroke-width="1.5"></path><path d="M1596.41 407.54L1457.05 371.41" stroke="hsl(228.5, 77.2%, 51.5%)" stroke-width="1.5"></path><path d="M1596.41 407.54L1548.9 188.54" stroke="hsl(228.5, 77.2%, 51.5%)" stroke-width="1.5"></path><path d="M1596.41 407.54L1438.77 247.23" stroke="hsl(228.5, 77.2%, 51.5%)" stroke-width="1.5"></path><path d="M-96.55 680.54L-96.55 680.54" stroke="hsl(228.5, 77.2%, 51.5%)" stroke-width="1.5"></path><path d="M-96.55 680.54L106.84 704.95" stroke="hsl(228.5, 77.2%, 51.5%)" stroke-width="1.5"></path><path d="M-96.55 680.54L110.33 548.55" stroke="hsl(228.5, 77.2%, 51.5%)" stroke-width="1.5"></path><path d="M-96.55 680.54L232.7 674.87" stroke="hsl(228.5, 77.2%, 51.5%)" stroke-width="1.5"></path><path d="M-96.55 680.54L253.33 549.9" stroke="hsl(228.5, 77.2%, 51.5%)" stroke-width="1.5"></path><path d="M-96.55 680.54L342.08 707.52" stroke="hsl(228.5, 77.2%, 51.5%)" stroke-width="1.5"></path><path d="M110.33 548.55L110.33 548.55" stroke="hsl(228.5, 77.2%, 51.5%)" stroke-width="1.5"></path><path d="M110.33 548.55L253.33 549.9" stroke="hsl(228.5, 77.2%, 51.5%)" stroke-width="1.5"></path><path d="M110.33 548.55L106.84 704.95" stroke="hsl(228.5, 77.2%, 51.5%)" stroke-width="1.5"></path><path d="M106.84 704.95L106.84 704.95" stroke="hsl(228.5, 77.2%, 51.5%)" stroke-width="1.5"></path><path d="M106.84 704.95L232.7 674.87" stroke="hsl(228.5, 77.2%, 51.5%)" stroke-width="1.5"></path><path d="M253.33 549.9L253.33 549.9" stroke="hsl(228.5, 77.2%, 51.5%)" stroke-width="1.5"></path><path d="M253.33 549.9L232.7 674.87" stroke="hsl(228.5, 77.2%, 51.5%)" stroke-width="1.5"></path><path d="M253.33 549.9L385.2 503.87" stroke="hsl(228.5, 77.2%, 51.5%)" stroke-width="1.5"></path><path d="M253.33 549.9L342.08 707.52" stroke="hsl(228.5, 77.2%, 51.5%)" stroke-width="1.5"></path><path d="M253.33 549.9L106.84 704.95" stroke="hsl(228.5, 77.2%, 51.5%)" stroke-width="1.5"></path><path d="M253.33 549.9L516.62 558.03" stroke="hsl(228.5, 77.2%, 51.5%)" stroke-width="1.5"></path><path d="M232.7 674.87L232.7 674.87" stroke="hsl(228.5, 77.2%, 51.5%)" stroke-width="1.5"></path><path d="M232.7 674.87L342.08 707.52" stroke="hsl(228.5, 77.2%, 51.5%)" stroke-width="1.5"></path><path d="M385.2 503.87L385.2 503.87" stroke="hsl(228.5, 77.2%, 51.5%)" stroke-width="1.5"></path><path d="M385.2 503.87L516.62 558.03" stroke="hsl(228.5, 77.2%, 51.5%)" stroke-width="1.5"></path><path d="M385.2 503.87L517.11 404.51" stroke="hsl(228.5, 77.2%, 51.5%)" stroke-width="1.5"></path><path d="M385.2 503.87L342.08 707.52" stroke="hsl(228.5, 77.2%, 51.5%)" stroke-width="1.5"></path><path d="M385.2 503.87L512.79 684.03" stroke="hsl(228.5, 77.2%, 51.5%)" stroke-width="1.5"></path><path d="M342.08 707.52L342.08 707.52" stroke="hsl(228.5, 77.2%, 51.5%)" stroke-width="1.5"></path><path d="M342.08 707.52L512.79 684.03" stroke="hsl(228.5, 77.2%, 51.5%)" stroke-width="1.5"></path><path d="M342.08 707.52L516.62 558.03" stroke="hsl(228.5, 77.2%, 51.5%)" stroke-width="1.5"></path><path d="M517.11 404.51L517.11 404.51" stroke="hsl(228.5, 77.2%, 51.5%)" stroke-width="1.5"></path><path d="M517.11 404.51L516.62 558.03" stroke="hsl(228.5, 77.2%, 51.5%)" stroke-width="1.5"></path><path d="M517.11 404.51L704.56 493.33" stroke="hsl(228.5, 77.2%, 51.5%)" stroke-width="1.5"></path><path d="M517.11 404.51L512.79 684.03" stroke="hsl(228.5, 77.2%, 51.5%)" stroke-width="1.5"></path><path d="M516.62 558.03L516.62 558.03" stroke="hsl(228.5, 77.2%, 51.5%)" stroke-width="1.5"></path><path d="M516.62 558.03L512.79 684.03" stroke="hsl(228.5, 77.2%, 51.5%)" stroke-width="1.5"></path><path d="M516.62 558.03L704.56 493.33" stroke="hsl(228.5, 77.2%, 51.5%)" stroke-width="1.5"></path><path d="M516.62 558.03L669.67 693.67" stroke="hsl(228.5, 77.2%, 51.5%)" stroke-width="1.5"></path><path d="M512.79 684.03L512.79 684.03" stroke="hsl(228.5, 77.2%, 51.5%)" stroke-width="1.5"></path><path d="M512.79 684.03L669.67 693.67" stroke="hsl(228.5, 77.2%, 51.5%)" stroke-width="1.5"></path><path d="M704.56 493.33L704.56 493.33" stroke="hsl(228.5, 77.2%, 51.5%)" stroke-width="1.5"></path><path d="M704.56 493.33L805.87 496.99" stroke="hsl(228.5, 77.2%, 51.5%)" stroke-width="1.5"></path><path d="M704.56 493.33L836.32 406" stroke="hsl(228.5, 77.2%, 51.5%)" stroke-width="1.5"></path><path d="M704.56 493.33L811.94 658.53" stroke="hsl(228.5, 77.2%, 51.5%)" stroke-width="1.5"></path><path d="M669.67 693.67L669.67 693.67" stroke="hsl(228.5, 77.2%, 51.5%)" stroke-width="1.5"></path><path d="M669.67 693.67L811.94 658.53" stroke="hsl(228.5, 77.2%, 51.5%)" stroke-width="1.5"></path><path d="M669.67 693.67L704.56 493.33" stroke="hsl(228.5, 77.2%, 51.5%)" stroke-width="1.5"></path><path d="M836.32 406L836.32 406" stroke="hsl(228.5, 77.2%, 51.5%)" stroke-width="1.5"></path><path d="M836.32 406L805.87 496.99" stroke="hsl(228.5, 77.2%, 51.5%)" stroke-width="1.5"></path><path d="M836.32 406L966.98 394.4" stroke="hsl(228.5, 77.2%, 51.5%)" stroke-width="1.5"></path><path d="M836.32 406L984.64 527.61" stroke="hsl(228.5, 77.2%, 51.5%)" stroke-width="1.5"></path><path d="M805.87 496.99L805.87 496.99" stroke="hsl(228.5, 77.2%, 51.5%)" stroke-width="1.5"></path><path d="M805.87 496.99L811.94 658.53" stroke="hsl(228.5, 77.2%, 51.5%)" stroke-width="1.5"></path><path d="M811.94 658.53L811.94 658.53" stroke="hsl(228.5, 77.2%, 51.5%)" stroke-width="1.5"></path><path d="M811.94 658.53L950.14 670.25" stroke="hsl(228.5, 77.2%, 51.5%)" stroke-width="1.5"></path><path d="M966.98 394.4L966.98 394.4" stroke="hsl(228.5, 77.2%, 51.5%)" stroke-width="1.5"></path><path d="M966.98 394.4L984.64 527.61" stroke="hsl(228.5, 77.2%, 51.5%)" stroke-width="1.5"></path><path d="M966.98 394.4L1117.57 342.01" stroke="hsl(228.5, 77.2%, 51.5%)" stroke-width="1.5"></path><path d="M966.98 394.4L805.87 496.99" stroke="hsl(228.5, 77.2%, 51.5%)" stroke-width="1.5"></path><path d="M966.98 394.4L1115.12 535.14" stroke="hsl(228.5, 77.2%, 51.5%)" stroke-width="1.5"></path><path d="M984.64 527.61L984.64 527.61" stroke="hsl(228.5, 77.2%, 51.5%)" stroke-width="1.5"></path><path d="M984.64 527.61L1115.12 535.14" stroke="hsl(228.5, 77.2%, 51.5%)" stroke-width="1.5"></path><path d="M984.64 527.61L950.14 670.25" stroke="hsl(228.5, 77.2%, 51.5%)" stroke-width="1.5"></path><path d="M984.64 527.61L805.87 496.99" stroke="hsl(228.5, 77.2%, 51.5%)" stroke-width="1.5"></path><path d="M984.64 527.61L811.94 658.53" stroke="hsl(228.5, 77.2%, 51.5%)" stroke-width="1.5"></path><path d="M950.14 670.25L950.14 670.25" stroke="hsl(228.5, 77.2%, 51.5%)" stroke-width="1.5"></path><path d="M950.14 670.25L1115.12 535.14" stroke="hsl(228.5, 77.2%, 51.5%)" stroke-width="1.5"></path><path d="M950.14 670.25L805.87 496.99" stroke="hsl(228.5, 77.2%, 51.5%)" stroke-width="1.5"></path><path d="M1117.57 342.01L1117.57 342.01" stroke="hsl(228.5, 77.2%, 51.5%)" stroke-width="1.5"></path><path d="M1115.12 535.14L1115.12 535.14" stroke="hsl(228.5, 77.2%, 51.5%)" stroke-width="1.5"></path><path d="M1115.12 535.14L1245.39 517.5" stroke="hsl(228.5, 77.2%, 51.5%)" stroke-width="1.5"></path><path d="M1115.12 535.14L1117.57 342.01" stroke="hsl(228.5, 77.2%, 51.5%)" stroke-width="1.5"></path><path d="M1287.89 108.49L1287.89 108.49" stroke="hsl(228.5, 77.2%, 51.5%)" stroke-width="1.5"></path><path d="M1287.89 108.49L1391.68 99.03" stroke="hsl(228.5, 77.2%, 51.5%)" stroke-width="1.5"></path><path d="M1287.89 108.49L1268.25 220.22" stroke="hsl(228.5, 77.2%, 51.5%)" stroke-width="1.5"></path><path d="M1287.89 108.49L1438.77 247.23" stroke="hsl(228.5, 77.2%, 51.5%)" stroke-width="1.5"></path><path d="M1287.89 108.49L1428.48 -110.29" stroke="hsl(228.5, 77.2%, 51.5%)" stroke-width="1.5"></path><path d="M1287.89 108.49L1548.9 188.54" stroke="hsl(228.5, 77.2%, 51.5%)" stroke-width="1.5"></path><path d="M1268.25 220.22L1268.25 220.22" stroke="hsl(228.5, 77.2%, 51.5%)" stroke-width="1.5"></path><path d="M1268.25 220.22L1438.77 247.23" stroke="hsl(228.5, 77.2%, 51.5%)" stroke-width="1.5"></path><path d="M1245.39 517.5L1245.39 517.5" stroke="hsl(228.5, 77.2%, 51.5%)" stroke-width="1.5"></path><path d="M1245.39 517.5L1410.07 546.82" stroke="hsl(228.5, 77.2%, 51.5%)" stroke-width="1.5"></path><path d="M1245.39 517.5L1265.81 704.27" stroke="hsl(228.5, 77.2%, 51.5%)" stroke-width="1.5"></path><path d="M1245.39 517.5L1117.57 342.01" stroke="hsl(228.5, 77.2%, 51.5%)" stroke-width="1.5"></path><path d="M1245.39 517.5L1406.06 694.6" stroke="hsl(228.5, 77.2%, 51.5%)" stroke-width="1.5"></path><path d="M1265.81 704.27L1265.81 704.27" stroke="hsl(228.5, 77.2%, 51.5%)" stroke-width="1.5"></path><path d="M1265.81 704.27L1406.06 694.6" stroke="hsl(228.5, 77.2%, 51.5%)" stroke-width="1.5"></path><path d="M1265.81 704.27L1410.07 546.82" stroke="hsl(228.5, 77.2%, 51.5%)" stroke-width="1.5"></path><path d="M1428.48 -110.29L1428.48 -110.29" stroke="hsl(228.5, 77.2%, 51.5%)" stroke-width="1.5"></path><path d="M1428.48 -110.29L1391.68 99.03" stroke="hsl(228.5, 77.2%, 51.5%)" stroke-width="1.5"></path><path d="M1391.68 99.03L1391.68 99.03" stroke="hsl(228.5, 77.2%, 51.5%)" stroke-width="1.5"></path><path d="M1391.68 99.03L1438.77 247.23" stroke="hsl(228.5, 77.2%, 51.5%)" stroke-width="1.5"></path><path d="M1391.68 99.03L1268.25 220.22" stroke="hsl(228.5, 77.2%, 51.5%)" stroke-width="1.5"></path><path d="M1391.68 99.03L1548.9 188.54" stroke="hsl(228.5, 77.2%, 51.5%)" stroke-width="1.5"></path><path d="M1438.77 247.23L1438.77 247.23" stroke="hsl(228.5, 77.2%, 51.5%)" stroke-width="1.5"></path><path d="M1438.77 247.23L1548.9 188.54" stroke="hsl(228.5, 77.2%, 51.5%)" stroke-width="1.5"></path><path d="M1438.77 247.23L1457.05 371.41" stroke="hsl(228.5, 77.2%, 51.5%)" stroke-width="1.5"></path><path d="M1457.05 371.41L1457.05 371.41" stroke="hsl(228.5, 77.2%, 51.5%)" stroke-width="1.5"></path><path d="M1457.05 371.41L1553.42 502.37" stroke="hsl(228.5, 77.2%, 51.5%)" stroke-width="1.5"></path><path d="M1457.05 371.41L1410.07 546.82" stroke="hsl(228.5, 77.2%, 51.5%)" stroke-width="1.5"></path><path d="M1410.07 546.82L1410.07 546.82" stroke="hsl(228.5, 77.2%, 51.5%)" stroke-width="1.5"></path><path d="M1410.07 546.82L1406.06 694.6" stroke="hsl(228.5, 77.2%, 51.5%)" stroke-width="1.5"></path><path d="M1410.07 546.82L1553.42 502.37" stroke="hsl(228.5, 77.2%, 51.5%)" stroke-width="1.5"></path><path d="M1406.06 694.6L1406.06 694.6" stroke="hsl(228.5, 77.2%, 51.5%)" stroke-width="1.5"></path><path d="M1406.06 694.6L1604.11 655.21" stroke="hsl(228.5, 77.2%, 51.5%)" stroke-width="1.5"></path><path d="M1406.06 694.6L1553.42 502.37" stroke="hsl(228.5, 77.2%, 51.5%)" stroke-width="1.5"></path><path d="M1548.9 188.54L1548.9 188.54" stroke="hsl(228.5, 77.2%, 51.5%)" stroke-width="1.5"></path><path d="M1548.9 188.54L1457.05 371.41" stroke="hsl(228.5, 77.2%, 51.5%)" stroke-width="1.5"></path><path d="M1553.42 502.37L1553.42 502.37" stroke="hsl(228.5, 77.2%, 51.5%)" stroke-width="1.5"></path><path d="M1553.42 502.37L1604.11 655.21" stroke="hsl(228.5, 77.2%, 51.5%)" stroke-width="1.5"></path><path d="M1604.11 655.21L1604.11 655.21" stroke="hsl(228.5, 77.2%, 51.5%)" stroke-width="1.5"></path><path d="M1604.11 655.21L1410.07 546.82" stroke="hsl(228.5, 77.2%, 51.5%)" stroke-width="1.5"></path><path d="M1604.11 655.21L1596.41 407.54" stroke="hsl(228.5, 77.2%, 51.5%)" stroke-width="1.5"></path><path d="M1604.11 655.21L1457.05 371.41" stroke="hsl(228.5, 77.2%, 51.5%)" stroke-width="1.5"></path><circle r="25" cx="-54.65" cy="494.19" fill="url(&quot;#SvgjsRadialGradient1017&quot;)"></circle><circle r="25" cx="1264.02" cy="-47.42" fill="url(&quot;#SvgjsRadialGradient1017&quot;)"></circle><circle r="25" cx="1244.44" cy="378.6" fill="url(&quot;#SvgjsRadialGradient1017&quot;)"></circle><circle r="25" cx="1566.63" cy="-51.04" fill="url(&quot;#SvgjsRadialGradient1017&quot;)"></circle><circle r="25" cx="1579.28" cy="103.92" fill="url(&quot;#SvgjsRadialGradient1017&quot;)"></circle><circle r="25" cx="1596.41" cy="407.54" fill="url(&quot;#SvgjsRadialGradient1017&quot;)"></circle><circle r="5" cx="-96.55" cy="680.54" fill="#8b9ad9"></circle><circle r="5" cx="110.33" cy="548.55" fill="#8b9ad9"></circle><circle r="5" cx="106.84" cy="704.95" fill="#8b9ad9"></circle><circle r="5" cx="253.33" cy="549.9" fill="#8b9ad9"></circle><circle r="5" cx="232.7" cy="674.87" fill="#8b9ad9"></circle><circle r="5" cx="385.2" cy="503.87" fill="#8b9ad9"></circle><circle r="5" cx="342.08" cy="707.52" fill="#8b9ad9"></circle><circle r="5" cx="517.11" cy="404.51" fill="#8b9ad9"></circle><circle r="5" cx="516.62" cy="558.03" fill="#8b9ad9"></circle><circle r="5" cx="512.79" cy="684.03" fill="#8b9ad9"></circle><circle r="5" cx="704.56" cy="493.33" fill="#8b9ad9"></circle><circle r="5" cx="669.67" cy="693.67" fill="#8b9ad9"></circle><circle r="5" cx="836.32" cy="406" fill="#8b9ad9"></circle><circle r="5" cx="805.87" cy="496.99" fill="#8b9ad9"></circle><circle r="5" cx="811.94" cy="658.53" fill="#8b9ad9"></circle><circle r="5" cx="966.98" cy="394.4" fill="#8b9ad9"></circle><circle r="5" cx="984.64" cy="527.61" fill="#8b9ad9"></circle><circle r="5" cx="950.14" cy="670.25" fill="#8b9ad9"></circle><circle r="5" cx="1117.57" cy="342.01" fill="#8b9ad9"></circle><circle r="5" cx="1115.12" cy="535.14" fill="#8b9ad9"></circle><circle r="5" cx="1287.89" cy="108.49" fill="#8b9ad9"></circle><circle r="5" cx="1268.25" cy="220.22" fill="#8b9ad9"></circle><circle r="5" cx="1245.39" cy="517.5" fill="#8b9ad9"></circle><circle r="5" cx="1265.81" cy="704.27" fill="#8b9ad9"></circle><circle r="5" cx="1428.48" cy="-110.29" fill="#8b9ad9"></circle><circle r="5" cx="1391.68" cy="99.03" fill="#8b9ad9"></circle><circle r="5" cx="1438.77" cy="247.23" fill="#8b9ad9"></circle><circle r="5" cx="1457.05" cy="371.41" fill="#8b9ad9"></circle><circle r="5" cx="1410.07" cy="546.82" fill="#8b9ad9"></circle><circle r="5" cx="1406.06" cy="694.6" fill="#8b9ad9"></circle><circle r="5" cx="1548.9" cy="188.54" fill="#8b9ad9"></circle><circle r="5" cx="1553.42" cy="502.37" fill="#8b9ad9"></circle><circle r="5" cx="1604.11" cy="655.21" fill="#8b9ad9"></circle></g><defs><mask id="SvgjsMask1015"><rect width="1440" height="560" fill="#ffffff"></rect></mask><linearGradient x1="15.28%" y1="-39.29%" x2="84.72%" y2="139.29%" gradientUnits="userSpaceOnUse" id="SvgjsLinearGradient1016"><stop stop-color="#0e2a47" offset="0"></stop><stop stop-color="#00459e" offset="1"></stop></linearGradient><radialGradient id="SvgjsRadialGradient1017"><stop stop-color="#ffffff" offset="0.1"></stop><stop stop-color="#1735b3" offset="0.2"></stop><stop stop-color="rgba(23, 53, 179, 0)" offset="1"></stop></radialGradient></defs></svg>